<mxfile host="app.diagrams.net" modified="2023-12-27T14:16:58.458Z" agent="Mozilla/5.0 (Windows NT 10.0; Win64; x64) AppleWebKit/537.36 (KHTML, like Gecko) Chrome/120.0.0.0 Safari/537.36" etag="hDIhIEr64OVEQMbY0EIr" version="22.1.13" type="github" pages="2">
  <diagram name="Sequence Diagram" id="13e1069c-82ec-6db2-03f1-153e76fe0fe0">
    <mxGraphModel dx="794" dy="446" grid="0" gridSize="10" guides="1" tooltips="1" connect="1" arrows="1" fold="1" page="1" pageScale="1" pageWidth="1100" pageHeight="850" background="none" math="0" shadow="0">
      <root>
        <mxCell id="0" />
        <mxCell id="1" parent="0" />
        <mxCell id="7baba1c4bc27f4b0-2" value="Mulesoft" style="shape=umlLifeline;perimeter=lifelinePerimeter;whiteSpace=wrap;html=1;container=1;collapsible=0;recursiveResize=0;outlineConnect=0;rounded=1;shadow=0;comic=0;labelBackgroundColor=none;strokeWidth=1;fontFamily=Verdana;fontSize=12;align=center;" parent="1" vertex="1">
          <mxGeometry x="240" y="80" width="100" height="290" as="geometry" />
        </mxCell>
        <mxCell id="7baba1c4bc27f4b0-10" value="" style="html=1;points=[];perimeter=orthogonalPerimeter;rounded=0;shadow=0;comic=0;labelBackgroundColor=none;strokeWidth=1;fontFamily=Verdana;fontSize=12;align=center;" parent="7baba1c4bc27f4b0-2" vertex="1">
          <mxGeometry x="45" y="100" width="10" height="100" as="geometry" />
        </mxCell>
        <mxCell id="7baba1c4bc27f4b0-14" value="Request" style="html=1;verticalAlign=bottom;endArrow=block;labelBackgroundColor=none;fontFamily=Verdana;fontSize=12;edgeStyle=elbowEdgeStyle;elbow=vertical;" parent="7baba1c4bc27f4b0-2" edge="1">
          <mxGeometry relative="1" as="geometry">
            <mxPoint x="55" y="111" as="sourcePoint" />
            <mxPoint x="211.5" y="112" as="targetPoint" />
            <Array as="points" />
          </mxGeometry>
        </mxCell>
        <mxCell id="7baba1c4bc27f4b0-5" value="Salesforce" style="shape=umlLifeline;perimeter=lifelinePerimeter;whiteSpace=wrap;html=1;container=1;collapsible=0;recursiveResize=0;outlineConnect=0;rounded=1;shadow=0;comic=0;labelBackgroundColor=none;strokeWidth=1;fontFamily=Verdana;fontSize=12;align=center;" parent="1" vertex="1">
          <mxGeometry x="407" y="81" width="100" height="289" as="geometry" />
        </mxCell>
        <mxCell id="7baba1c4bc27f4b0-19" value="" style="html=1;points=[];perimeter=orthogonalPerimeter;rounded=0;shadow=0;comic=0;labelBackgroundColor=none;strokeWidth=1;fontFamily=Verdana;fontSize=12;align=center;" parent="7baba1c4bc27f4b0-5" vertex="1">
          <mxGeometry x="45" y="110" width="10" height="40" as="geometry" />
        </mxCell>
        <mxCell id="7baba1c4bc27f4b0-8" value="SLACK" style="shape=umlLifeline;perimeter=lifelinePerimeter;whiteSpace=wrap;html=1;container=1;collapsible=0;recursiveResize=0;outlineConnect=0;rounded=1;shadow=0;comic=0;labelBackgroundColor=none;strokeWidth=1;fontFamily=Verdana;fontSize=12;align=center;" parent="1" vertex="1">
          <mxGeometry x="100" y="80" width="100" height="290" as="geometry" />
        </mxCell>
        <mxCell id="7baba1c4bc27f4b0-9" value="" style="html=1;points=[];perimeter=orthogonalPerimeter;rounded=0;shadow=0;comic=0;labelBackgroundColor=none;strokeWidth=1;fontFamily=Verdana;fontSize=12;align=center;" parent="7baba1c4bc27f4b0-8" vertex="1">
          <mxGeometry x="45" y="100" width="10" height="160" as="geometry" />
        </mxCell>
        <mxCell id="7baba1c4bc27f4b0-11" value="Request" style="html=1;verticalAlign=bottom;endArrow=block;entryX=0;entryY=0;labelBackgroundColor=none;fontFamily=Verdana;fontSize=12;edgeStyle=elbowEdgeStyle;elbow=vertical;" parent="1" source="7baba1c4bc27f4b0-9" target="7baba1c4bc27f4b0-10" edge="1">
          <mxGeometry relative="1" as="geometry">
            <mxPoint x="220" y="190" as="sourcePoint" />
          </mxGeometry>
        </mxCell>
        <mxCell id="7baba1c4bc27f4b0-46" value="Note" style="shape=note;whiteSpace=wrap;html=1;size=14;verticalAlign=top;align=left;spacingTop=-6;rounded=0;shadow=0;comic=0;labelBackgroundColor=none;strokeWidth=1;fontFamily=Verdana;fontSize=12" parent="1" vertex="1">
          <mxGeometry x="960" y="30" width="100" height="35" as="geometry" />
        </mxCell>
        <mxCell id="7baba1c4bc27f4b0-21" value="Response" style="html=1;verticalAlign=bottom;endArrow=open;dashed=1;endSize=8;labelBackgroundColor=none;fontFamily=Verdana;fontSize=12;elbow=vertical;exitX=0.5;exitY=0.393;exitDx=0;exitDy=0;exitPerimeter=0;" parent="1" edge="1">
          <mxGeometry relative="1" as="geometry">
            <mxPoint x="295" y="230.94000000000005" as="targetPoint" />
            <mxPoint x="458" y="230.94000000000005" as="sourcePoint" />
          </mxGeometry>
        </mxCell>
        <mxCell id="H4V5rUEKpavtD9piNYuJ-1" value="Response" style="html=1;verticalAlign=bottom;endArrow=open;dashed=1;endSize=8;labelBackgroundColor=none;fontFamily=Verdana;fontSize=12;elbow=vertical;entryX=0.881;entryY=0.629;entryDx=0;entryDy=0;entryPerimeter=0;" parent="1" target="7baba1c4bc27f4b0-9" edge="1">
          <mxGeometry relative="1" as="geometry">
            <mxPoint x="156.33000000000004" y="281.1600000000001" as="targetPoint" />
            <mxPoint x="289.5" y="281.1600000000001" as="sourcePoint" />
          </mxGeometry>
        </mxCell>
      </root>
    </mxGraphModel>
  </diagram>
  <diagram id="8iOStzjyPpnWHcEhktMK" name="Design Diragram">
    <mxGraphModel dx="1134" dy="637" grid="0" gridSize="10" guides="1" tooltips="1" connect="1" arrows="1" fold="1" page="1" pageScale="1" pageWidth="827" pageHeight="1169" math="0" shadow="0">
      <root>
        <mxCell id="0" />
        <mxCell id="1" parent="0" />
        <mxCell id="YUbw2JP94p_LkqaTvcqz-1" style="edgeStyle=orthogonalEdgeStyle;rounded=0;orthogonalLoop=1;jettySize=auto;html=1;entryX=0;entryY=0.5;entryDx=0;entryDy=0;" parent="1" source="YUbw2JP94p_LkqaTvcqz-2" target="YUbw2JP94p_LkqaTvcqz-6" edge="1">
          <mxGeometry relative="1" as="geometry" />
        </mxCell>
        <mxCell id="YUbw2JP94p_LkqaTvcqz-2" value="" style="shape=image;html=1;verticalAlign=top;verticalLabelPosition=bottom;labelBackgroundColor=#ffffff;imageAspect=0;aspect=fixed;image=https://cdn2.iconfinder.com/data/icons/social-media-2285/512/1_Slack_colored_svg-128.png" parent="1" vertex="1">
          <mxGeometry x="878" y="394" width="128" height="128" as="geometry" />
        </mxCell>
        <mxCell id="YUbw2JP94p_LkqaTvcqz-3" style="edgeStyle=orthogonalEdgeStyle;rounded=0;orthogonalLoop=1;jettySize=auto;html=1;" parent="1" source="YUbw2JP94p_LkqaTvcqz-4" target="YUbw2JP94p_LkqaTvcqz-7" edge="1">
          <mxGeometry relative="1" as="geometry">
            <mxPoint x="1572" y="604" as="targetPoint" />
          </mxGeometry>
        </mxCell>
        <mxCell id="YUbw2JP94p_LkqaTvcqz-4" value="" style="shape=image;verticalLabelPosition=bottom;verticalAlign=top;imageAspect=0;aspect=fixed;image=data:image/png,iVBORw0KGgoAAAANSUhEUgAAAKgAAACoCAYAAAB0S6W0AAAACXBIWXMAAC4jAAAuIwF4pT92AAAS2klEQVR4nO1d/3XiuBaW5+z/yVYAW0F4FQxTwTAVQCoYUsGQCoZUMLiCJRUsVPCggrUreKEC3lHyKaOYe2XZ2JZk6zuHM7vBGBt/ur90fyTn81lERPiKP+KTMSNJs1shxEQIof6VGONVxGf8fy6EyArvvQghDvjvTL3O83HxuAgNUYJqSNJsChJOQMDP1h++DkcQVhJ4J/89z8eS0IPHYAkKyTjVXnceXJYOKYV36jVUSTsogiZpNgEhFx4SsgySsFuQdev3pTaH3hMUpJSEnAkhRh5cUhM4gazbvpO1lwSF+l60ICl152dHvH+AMzQl3lOO1m3D16TIuj7PxweL44NCrwgKJ0eScn7lqfaa03Jow9vWogMqIqActJsrTnsEUTcNXqpT9IKgSZpJUi5rSqaT5oxI75mSjJ0hSbNxwXmrY5bIe1qDrEFHA4ImKIi5qvEQj5oN57Va1AgrbeivFT8uiboBUYOMAgRJ0JrEPOJhbUMO2SRpNgNZq5gxwUrUoAgKG3NTgZg5jt/0LY4IG3ZW0bQ5gaSrli+vMQRBUKi5TYWdnT0exCDihQilLUFYGydLLtxlCL+P9wRN0kyu9h+Wh6d9DbfYAFJ1iZcNUeVCXvisXbwlaEV1Lom5iokXb6hI1BN+u3VX11cF3hEUP66Umt8tDo/ENKAiUb2Upl4RFLbUxsLo34OYTmOWoaDCovdOmnpD0CTN5Cr/WXLYCcZ9b3ZKugQEwNrC2XyGNHUeknJOUKzutUVc7wmrO+ZJXgnEkdclal96+jPXDqdTgiJ8tC1R6TlWc1TnDQKCYVOyO+VcYzkjKNTNrmQVR6nZMiyl6aOr4L4TguJH+WU45ASpOZjEXJew1GTpeT5edH2ZnRPUwhk6wvaJoaOOkaTZusTTl89m2qVG+9TlT5Ck2aaEnCl+gEhOBzjPx1J43EODUZASdgf7tRN0JkFBTpOn/uDrbsbQYOEfdCZJO5GgJeSUq/U+ktMfILQ0BhEpdCZJW5egFuScDjW5w3eAgDuD89S6JG1VgkZyhg0QbwrfgELrkrQ1CVoSSorkDAwlwqY1SdqKBI3k7B8QAzVJ0lZ8iMYlKDzA/zJvR3IGjhJJ+oRQVWNolKDYkTgw4YlIzp4gSbODwXG6b3LvvjEVD0N5G8k5CEwNIag1tGgjaNIGXRtW1TKSsz/QvHtqx0kKqG1Tnn0jBIVTxNkljzHBuH8oIekIqXxX42qCalnaFNKQarAjqgFakXOKviIx6Co0IUE3jN15NFx8RE8A7fjE3M3Pa+3RqwiKmnXK7jz5UtMS0T4QWtozX3SVqq9NUKwMrqFCdIqGhwVjj95BkNXCNRKUWxnP0SkaHpDDy2Xc/6ir6msRFMYvq9rrnDMifKBE55m5kVpboZUJit0iTmRHuzOCU/WfEY6shDoSdMV47c+xyC0CAooj4rpqAL8SQdHQiwrIR9Ue8Q6Dqr+pGnqsKkE51R5r1yOKWDKq/gfMRCtYExTSk+rpc4z1RBFFwKvneGEddqoiQbkvi7tFERzWaF1UxNxWiloRFI37qbDSPvZMiuAAs481C21+OFsJyknJmAgSYQQ2bWpL0VKCGmzPKD0jbFFbitpI0Cg9I65CiRQ1xkWNBIUIpvpHRukZURWcQDM62X+UfElvpGeS5mpW/K02wFVoU4sxq3MU47ktQEpRdM8r7kIuTHwyVnUmafZCnDA/z8fWgVaXSNJ8qs2Kt50ifER4ZBvJ2iwMM6++cdvkLEENzRcaLSttAyDmqsJkOgoYGziqrC0grSealNYxWEkNk/Ff4i2ZxzEjP2Mg6JawP+VDG/u6rZmkuU3f9apAj/yR0eYGKauMIxykpGZ4JfEnxSvSSYJnRZ1k6zE5J2ga0SQ5BSoU/0nSnLTHkzQfJ2m+QzeVeQVT4g4aKkvSfEgREU77khKU8+K5zCQvVTvIuas5/N8WP5M0/3D/INa/V5oSN28JFPkB99FrwNakQk6kAOAISrE59zG0pJHTVnJdg3mS5mtpSiRpvq0w5NYGaGWYk5KkZ6AcojtqZ+mCoFDvlETwLhkZNmdX5FT43pIpIXAffydp3vfcWk4TT4t/oCQot4J9VO9cL6i20aYpIfGrz+oeFb+Umr/gHhWov2Ax1LtXZcRQhdfYfr5Dqvux7uEXNhsm+FdBapIXhLBC2OXbEiNvLrQSRVBKgvp4w31PkpaaYQ1bd2YRvnpfrEn6KpyeEcLyNWa9o2YyyeQk3df5VHhzwvwIXtmfsNHaVrM+QIat/q4YvlL4ClMh89GmNRRYftDgRRuUUu/CQwk6BE+3KYw0onLP1xWodjmVCXr0KTgPz70ND7rvUBsOPm0KUILvg19RJCjlOfomPX2TAqFBbgpssNBdg+QWkuRf8Un74y1j1/lG0N7vtnSAuQ/P1bDx8/6MP1F/LMC3LnWRoM3grrh16wiUHUoSlFKdJw8nD/ugmvqCOZcE0yEoAfi+5fmJ+qOG2OOz//jpeNeKEoDvjlIkaIRwvOlBckwljugEpbYNfVPvEe3gs8NgPicELwha5cMuERdNO3Biixpi7K9mxytB9bhTAT6SIZod7eDOoS1KefKvzrBRgnrowYsO4ndHJhWsKeR4IFRrQtfwac/+g4oPJrZ4no8OLT/cZUsPShL/y3k+Glcsg+4SrnIcKKHzgaBUbJGbe+MDQpwiIh++LBWRZbT/8+B6KIw82QJ9R5PDZDsBMnJCy2Y6nuejLJBeqr5oUysv3itg1+OfklxQqf4fpTrF676gDZ7xN/X+o4XJoH/mgTj+WTvfNzmjVHvvXjMZljiGOm/xOqSt+gWmwRNxHym+S33nkTnvU0WTyEUyDqXiX5+xIih1UV45SNg3/mlx6BLdQMa4r0wzCU7oOKLeGyNIbbI50/N8NMN5JjjXWHvoe7z/ov2OekqbPPZFlm9omfHibQr0h/Oucaxy0DKUbszw3otmin07z0cL7TvH2nv3OK/AeVchZ4CZmod5Q1BITm7c9wfIEgfUK6m2PXpp8A0aLOi4Pc9Ha5RJFCH/uEQOpTrP6jwfSVtyjb9tSqpLf2gSQp0jl4sI96UWnVo4q0LLoTG0hoJcMFss2OJvssf969075IKVzSVS29/QJ3iv4mFz2khOdfxEPkCoPS5clEKlPkIKcdihaO0W6lW+DlotvsQEx0wMjuWhIMXUZ3VbWpJ7StQQFaWfKpUw1Y7p15thAQUZPy5rv+gDqnrsshpyiQe9BcHXaIxwwgN/0R6w6cEpLbIt1GXdas7E9yTN5fk25/loClW+1iSYlJZKxRfPW8x/mBD1X0Wn5QX3RElrdd5i1jzXyMx7eE1QqMCqxXE3qMFZQx2vofL/Rbe6AwilHvDeYKOph1rWKe8HMtWf0Whshn5NnzXS6ERT580K90ctFirsw0l9dd7NFUWFXvXe8l3F1wnLKOflBqlkC4R4BNTduEKQXBHXJMV1D/mrpmYV2dT/61NS1HmL0nJnkbQxw2aFqeDsmipcr0wBbwkKqVdVCuSQIg+wMx/gNKgHNwNZ7xGKeSohnwxcr2Eu/KXZrfeafbvQwkTyO6ew+ZQJkRF73PK8r9JdC139hffKitq+w86W9/QffO8DwkyfsSCX2nuPsMdtQ03BENS1zVInGD+CxBpDihzggSuJ8hWq90X15hRvi0HPh1wUwk7f8ZkZzr2D2lWqcIPjX/Df00KnvQMT/P4Bb3uMYxYFlS897xXXBBfXfKtJaHU9v3DeqXa9ts/y6Fuv0tcGtkxrZjkowVn8TLYjZIaHhYQTQlJUSMhHPEH6dgpk0/1T/M7zfJz4bIOGTk6hmQ+hBMpd5TiQ/cCEr158ISQTIh5UEy+o4hDa9OzhfPmCV8dWEZSyO1x2jgudoGNkLl07yKFLeNmGXBE0Zqk3i4uubZ5j77hlI5sLYjNpzgXigukOJ88y6RV+E9TQgsQJQeMArU6x0jYyXIEyg145UObFu0xe9Tmjvy9IsVngDIZhsq9aVCcoRQiXzkpU8+0iRU6pa3BC8MIGpcS8SwkaYt1RKPCFnILjmKoo9pagiMkdLQ6NqIYHj8gpGC39rs11glKO0o1DT16EOPbbY8jF/h/XNicBSgi+C0udoJzN51KKbqOzdDVy1ClNPNspUqA8+PfrfCcoeuRQJRKu95EXnnbh8BknpP69NorwdRSNoeXSO0GLe/EHYt/YKUFljA65oRfZLgOECqorrTYppNxlyAEIJQJCckuPyxcJuiMmaMghn7cuJ30g6eK+UO04RCxh9ng3N7UmKIJ+MOmKgXpuR8l5uhjU1JcBq/vU46lxdUHZnx84+IGgmMdJEcCLVjNIaBijXGNI8Clu2QiSNOM4xRMUoNSHNwm3cp8enTO+DISoT30jJ1BqfwqGoGSfHMzx9AZSmoKof6KILSX6bh4DDlPJiMo3FyUYHYGSoBcCh8qo3zLOyMLH7mzIfNqYtkYd1zftYZbYZtXnuBdZTdrLrC4IO+r3uNDeFwSV3nqSZnvCgJ0F0j6QwgpTg11ggVCZmvU+JZoxvCDEtw0oRHQNOJPlQnu/VnVe/DHNlkw/pC+G3FGvoXX66BJOqiT9fxZZsaOKwNDiCzOSywfl1GXIxnrXO1J5zCW4BLx3Sr2TOQIkQRGUpzzkmSHB1Gt03OH4hC4msTLgEpyQIzcfTBn11AduAmy//Q4Euu87+KrFQGzJSkBmHDXr/5nbqWQJep6PN4xKDFpttUzSExI0+rIV2TQ46clGYMpqkqgPjgxZKEFA2zZtch7SEQ1og3QiOwJlYuXn+Zhd0GUE5ZJbgzf+QaQJOtxdgxP6zfuab+kFkjRbMG0vjfkFZJjpwwFptmXshmBDTkWg1Y7qamcbUD+qDYLoDJWDCS1J/GnKlLMhKNl5zHX3u7aAgPpEmwSioILpGXrXx6G2loD0pHYn0/N8bAxdlhJUvH0BF+TujRSNaA8G6flX2TxY2/aLvbVFI9oFpCdFztRmWLGVBBVvX8QlXEQpGkECmzpUGZGwkZ6iYo96bhfGtzLWCH/ATWmxkp6iCkEhJancyjskl0REvAO7RhwvrE3Dqi3AuROvQt2jj2gNaybu+WgrPUVVgkKKpsRbN7GXUoQCMpao2PmpqklYZ4jCitmj/2oohIoYCKBJOWG1rFq+XpmgEM+cqt9EVT94bBjVvkcCUiXUGkNzno/XTOe5qOoHDINqF3Vzca+Zk8RtUX1FcDZiQIDXzgmnR/RcqIzaBMUXPjJvr30rU45oHZxql7VGtXccr5o0hy9mVX20R4eBJM3WhoLEq7RpE6MQuWK0u7jL1H/AnOPmQj3UVe0KVxMUF8AZwHMMqo3oIWDGcULoGc70VWhkmCzCB1QAX7yNnY5OU98A823H2J15UyXqTU47XhqGHkSnqUcoISdKrpvpJ9sYQXFBM8YevXkbwh9J2hPsDL2ultfanToanRePXSauDCSStAdI0mxjIOdTnd0iExolqPjtNHF155GkAQPknDN3IHM8G0+7bJyg4rfTFEnaI5SQ89hWWyHrko9aJzff1Omt0UFz9kpE84BDtC4h57StIRutElREkgYNzVvnbM5WySnaUvE6UPfMxUiVuo9xUs/gAzlFFwQVdiT9Feua/AH8g8w1OUUXKv7Dl5nVvQCJK2ddRzQHaDOunkh0SU7RNUGFub24whE7EbG1TMdAVhKX+CG6JqdwQVBh7tWjcHprAsu35Yto9HmM0bDYNAmltI9SG3BCUPHbzuH2cxVka8RVVPntwUKlC2TEO8lKc0ZQYb9yc0jT2F6nQWjVl1wNkYAmWza9fVkFTgkq7ALBClGaNgRLqZnDF3Aao3ZOUAUL50n4sKJDhpZgXDYv6hlay7kw8Iag4vcPaMqWUdhDmka1bwFoqVWJhy4gAFZNZMI3Ba8IKqr9mAJx01UMSdHAb7nEy6TOBRb9wrff0juCKqD1+MayZ3wkqoaKxPROaurwlqAKKLr7YXl4+jYleJjJJxWJKXyVmjq8J6j42LXCdhjsHkQdRKAftvsSJTc2xMzhbHr/+wRBUIWKal9os9c3fVP/kJZqRLrtLPwTFm4wpeBBEVQBcbxVBaIKba7RNmSyokHXzCJurEP15VyHFkcOkqAKNYkqQNYtyOq1vQrzZgpSmnZ9KJywKNehLsqgCaoAolZRdTpOyAmQr4Pr2KpGSPWquvhEyBKziF4QVAE26qKi+qOwR8LuQU2Xa1oCwYZUE+0UKSeWTg6HI0jZm522XhFUAQ9fzd6sI1U55CCugMQt4oCRiVRvAEm+W7yavKYTzJVehtd6SVAdCMEsYMPVUZc+4qTZ0L0OpfWeoDpA1mkLkrUL5CDlbkiJ3IMiqA6YAboz4hthJSGV87Yb6jbuYAlKAU6WPo7bdufqWhw1p0xFEwaf9yoiQcuhedvqX6F53kUoQh/hLOlQ8+YFyJi1ER3oGyJBI/yFEOL//lpYdcMtnS4AAAAASUVORK5CYII=;" parent="1" vertex="1">
          <mxGeometry x="1453" y="374" width="168" height="168" as="geometry" />
        </mxCell>
        <mxCell id="YUbw2JP94p_LkqaTvcqz-5" style="edgeStyle=orthogonalEdgeStyle;rounded=0;orthogonalLoop=1;jettySize=auto;html=1;" parent="1" source="YUbw2JP94p_LkqaTvcqz-6" target="YUbw2JP94p_LkqaTvcqz-4" edge="1">
          <mxGeometry relative="1" as="geometry" />
        </mxCell>
        <mxCell id="YUbw2JP94p_LkqaTvcqz-6" value="" style="shape=image;verticalLabelPosition=bottom;verticalAlign=top;imageAspect=0;aspect=fixed;image=data:image/png,iVBORw0KGgoAAAANSUhEUgAAAH8AAABqCAYAAACVpo47AAAAAXNSR0IArs4c6QAAAAlwSFlzAAAXEgAAFxIBZ5/SUgAAHXVJREFUeAHtnQmcVPWRx6vPmek5mBPkkBtFAS8Q1MRr1Rg08YommhijoOJiiEfWjclmV+InxpiNR9ZVCa4ESci6ksuYqDGJqBFU8FYQBUfkPoa5e2Z6+tpvvZ43/bp5Pc7BzLwe5v+Znu5+7/2v+lXVv6r+R4sMpoOWAi6n9XzhwoX+nVt3nhyKhtYtXbp0l9Pa19n2XHHFFWVer/d7rrjrOM0Tj8c3jB47egH9i3S2jN5+ztvbFXS1/HXr1klhQeG/e1ye8quuumolBPxTLBZb+8gjj1R3taz+eH7BVQsqml3NF8YkdqXE5dhoPJrrdrm1KYEdO3Y4StgcB35JSUk80hrJE7cc4RHP2Eg48hWXy1V5zdxrVseisZXhWPiNZcuWbe8PYDPViTR7t2zZMoX7FwYl+AXAHi8xKYzFY14YQMRRkCd74TjwtWlxV9zvEpc7Eovk8zU/HouXwgBTYYjLYYhdc66cs47rryJdrxQXF2+47777ajVfX6Zrr73WR5smRcPR0wH+TJVyt9tdGo1EAxFXxGO0RYEn8Ry8EPMnvjnnv+PAHzFiRHTrJ1tXQqLRXre3FJUvMVfME41FDUaAKcpcbtckCPr5eDQeqqut+5jh4W2+rw6Hw2thhsr7778/1BskXrBgQVFjY+NUt7hPjUViJyHZU6m3mDblwag5fE9IeRvoHrfHAD4u8SpP3PO89q032tXdMh2pkK688spipOgICHsuInMBxtIUPosyAlohta9xiXo8nhD3WxgW6lCxGwBnFZL498KSwrfvvffe5tQMXfs2Z86cQoA7DhY8GwY8hXom0rY82pIL2Cr9CRqaUk4DaI9wTw27t2DUJ2DKZ8nzIQZsn2uojnrrSPC1wZdcconH7/fnQ7Qy3s+AAS4B0JMZT/Oi0Sgf26md7B8XwSJCnmbAaeLGuzDCn/15/icfeuihyuSDn/5p7ty5E6nzfKo5l6ePpMz8NsCT2rK9CS7hfqJQl+ygGX/zRD1/DMVDr2Cw1jc0NDStWLHCUVKvjXUs+AlKGv9dMEJuAckdd093eVxfApRzUbXDeRek0fJoao9glDCgBGGWXW6P+ykAWbp46eJ3UzOkfrv66quPYjiZQ9nnkGcogOcjxfsBrrnUilfQAbuJ9qzFJnmytbH1OV++7xMs++DTTz/dK8NPaou7/y0bwG/vHUzg9/l8+UjTWF6zIfhFgHMMY6snRRuYOczegQ6quAlAd/LxD/je6i20iar5MAOMS0bxzAUAegjlBfieKMEy0piAw3RRPm9gGPoLbXgmFAq9Q5saJ0yY0Iz1z+Dv/GSSx/kttbQQ4rr3rNsTqPPXFed4c2ahDb7A7TPxCkapJAKGjrnJHGYvQR6AgtxIUxdtj8bFE4niYVhA149apg7tMIQOKxupb6U74v5r2BV+nSGphtxNixcvDicrzI5PJlmyo7U2rZw9e3YOVrTaBsMB/UTk90wwPglGOFQNLx0a2l/pxqJNeQq2CbiRT+LKLB9w8UWGnVVxd/yt5ubmfTU1NU1OV+s23Uu5lPXgW3rjZljIycvLC/Aa1traOg2GmAFDHA2YE3huKINzAMl1qxSnpzagI7zXkW8bLPMez7zG6+1IJPIh14K7d+9uBvBWrlkGgvSSsuf7/lTox7YTOJkGWDMAoCYQCDyHv17fzea4cRf9wWAwJzc3NwcNMATAR/AahuquAMgSxusCIPQzZiuQQe7twSDchirfwjNVeo12tGzdujX0/PPPdzkef92V142NeqL/xADki4fje3xeX2VYwpVLlixp6GafDng2R4BPkKYC4n+H3n0JUIogeozXO1jbv4EZnoBgO3rYc9dpp53mmTZtmgfDzIMke3C/3ISSjWJhkjgMEa2qqorgVER64Ja5cBGPoe2X0YNzYbrhWgHfo9ggzWigSvyDv3pzvMsXLVq02ai8H//1O/gEUUZgfT+MMj4FUAoYW40EE6ib1gj4m/n8NyT0CbTBa70VvesJBsq8Xpf39KhEz0ObfJZ2l6m3wNCR9CjQL1yPwORNMMZmfI2fwNTLe1JvT/P2K/iES3MIly5hBu9iwqOJ2Lc5mra1DGmJqZsGMYMwyJsQ7+/euPf54bHh7y1curClpwTobn4FHIk+nrafCWOeDOjjaGs+/ciljYlizb6YlVj6BEPXkm8hDHC/ebuv3/sVfMblr+OjL8Znzs1oQllaiMpsZShoxh1rhFA6ufMahH45T/Lejvgiu3rT3Zo/f34BYdoxaKcZtGMWUj2DusfShgCMmYvGSpnM4XrmRJ9gFHUfq70+72W0+9nMD/feHQtpe6+S9JKRGNe8efPywq3h5yDALFR7+iP2383WqgrVYcHjbqEsjelXoUY3UdYGPPj3XF7XR/jfO/Hpq8rKypq6soBCtRFjf2FRbtFQwrMjUdWTqWMqUE0C8PEwayHfcwE8px1wbW26lNv3IHmVvujED31/oThYPPveFT2bg0gW3PlPJjk7n+MAPKnToS0tLTO8Hu9KDKGcLhNO22BpOcAo90QYHtQNawWYMEDVc30v4O2h/Dqs7mpsizqYJAR4+oqhsn0879OpYxinhFexvnNvGNdLyRcAID9l+bnmQ0PpRA632lJXATfzme9aVFxa6cupTPq8Yl7uq/dkzLqvaqQegiR+pPIsCJlDUKZ7yUJ4xk41rPwMB8k587gMxUYYB2gazYuhKTR8q7WpZa+59YWjF3fhhum7qm03xpgG670wixEPgDG4nEgwU9cl3Mxs904LaIsfOlzA7YMDfFRyDpMnX0sJwdoRp7PXLIzQnkXVQWJCJsHgds+0P5z2AYzREgcW6LQqzK8GDeJyKd9vNa/11Xu/SD7jnAdJm2BV3Qe8w10B+4BX3oUCaSeSH+hCjgP2aNIPPWBFdrIgtY6zBaBOdinbHus/8AeB73de6T/w+73rgw0YBP8g5oFB8AfBP4gpcBB3fVDyB8E/iClwEHd9UPIHwT+IKXAQdz0Z3l22eZz4c65nzVGAecZeJclvWqpzv/TiPb1aRzYVHnbnFMjybQ/2dZt1UjGRfr39LskNzJdQS68PBW62Ww2r+6TX6zG75vT3GPP6u4vH9K7E2RAhKfnxeIW0thZIa+/vMNJe7iwYadOcg/hSH9A9nbpW8Im2a8B9MOieTqSB+n1Q9Q5UZDvRr0HwO0GkgfrIIPgDFdlO9GsQ/E4QaaA+Mgj+QEW2E/1KWvudeDirHzGcGP5ZvWmNcujLdHDMd+M6//R9AKeBDb6CaWzCFSngcLfRAb9MKPDI+CK/DM1xS47HJUU+t9SHY8LebNkXisnWYES2NEZlS3NEdjax+y5KIQOUGQYm+Ao4El6U45JZ5bnyuRF5MrMiTyYVecXndokXMD2865jHG6d4JIRfcY7wRRmhvjUu79WGZM3ekLywKyRv1IQkxFYQI5N140YWa4aBBT7YKJIj8j3y5bEFctHogBxe7JcAaDdF4rKhthVAW6WyISJbmyJs7YlLA9cLfcoQLilHGxya75VxBV6ZVuqXM4YHjNeNU2LyVnVIntzSLL/bEpSdQfaBKNeoRsjiNHDAB/Riv1u+PqFI5hxWIOMAUdOLu1sArUler26V7ajxEGCH26RbeUX3ZuhpLYqjBwZQraDaIZ+ydIiYUZYjZ4/MkxPL8wwtcs3hhfLYR42yjNcOyiOTVpOVKdnyX219RLy+ORLq0ZmFfU8EA8G4nDosV/7t6GI5vjwHcEUe/7hRVmwOyrrasAQBHC3OHk7+6fOdSVBG2Yf91hLAXpgyxCcXjM6Xi8cGpMDnkQ/qw3Lfe3Wy4pOghHWYycKhILvBh+gcaS03HFEkN08dguR7ZAWgP7ihXtbXRqQxqoZcG9LJnnYG+sQzZl6+qUYoQMrHFXrlGxML5YoJBYbj8KetTfLvb9YYhqIxFHS+9H5/MrGnXJtx0c3ni9tzrESTGxP7vXUdNQDVPTTHI3fPLJV5k4dgqUflljXV8rMNDVLZGJEm7htenYLeHeC1bjMv7xQnLRS4JxSXl3e1yAsYghNhhNmjAnL6IbnycUPYsCWySQNkJ/ggMSrglYc/WyHnYdQ9v6tZ5q/eJy8wvjdgxPUYdDuma2MEVQbKBNtxCZ/d3iIR6juP4eDzMMEWrq2vYZd4lgwB2RfhQ9WPxphbenK5nIUL9+vKBpm3ap+8WxeWFkXGlFb9rOJ6oJK1POpQr29nS1T+k3F//stVGIkii04sl2sPKzyw9R6o9tuUk13gQ/ByrPD7TyiTU4blyQOM7besrZUdgKA+ert6B/QijLQL0Ap4bz1PMNxEYgTnjspLGIyGgZeor56KV3zcJJe/sFfqWqPy4xml8jXsgUSDel51b5ZwIEjTm+1Llg24evLCj6eX4XoF5JGN9XL7WzVS04oOtko7YJyG5f/YyUPl4c9UyNn46j3SANTrwx/8wTEl8gvKfHBWKS4gfoCpVai7GWZ4HjtgLkNPHe25Bwb4HO6h0xkge8CH2HMnF8plE/IZa5vktjfqpFb9N7MHxse4XHd4kSw7ZaicwZCgQZubpxZxtgoIcb9biXq/PCEgF6JFKihPLf3HTx8mZw3PTYKrwwCFr4IBvvnKPrSNS+6dWSbjMQjN8HK36u7lTNlh8AHArIocY0zdTcz96lVV8okGWCzAq3q/Hen8zlHFMiyPH2NRbUAagWG4AZ/8PYI8XXbFkOgx2BeLTqqQEZSpSQNAQ3M9ctohAfm4MSwfYGsYBh71qaH5CdHDmkhMLkf1jyLvHz9pSpzy3NYeoxCH/DPJ55Dm2DQDic2D4D84tliKQfi7b9TKh/jw1uRCrL9/9BBZcOQQKcEmsCb9evORRUberkq/h7o1cHR4kZ7blEzKWKOJ/j2AgafRv3b1znU9EerRDxtl+UcN8sVDA2gNfh3GHCKSRTjiUyqlHNGktEZAuEvGF8jpjN2/3NQoTxOqjWmrTUni/lxU8Q1HFEuBRmJs0jGEaL82oYtWOLbDObhvX6VuU4tYi9aaRgQ88t+zyuU4oortAHMjSHDpjnfqZFdzVBaijcY6VP07G3wkT2fmbjyiEMNO3ap6zlGD6ibGAD8dwi88tsSYnLGCY/2sPLGAMoYzBHRK+qlDh47bjiuR/AwMpeVrM8bjBdw5vdiYGm4vG031UV1E7llfJ2MxDudMgvH0TDCHJWeDD7jnjy5ghi1HHkGVfsTYbR3n1ZC7DbWsEvhpaWKhT65lUqZdQjvKwFh/y7QhcnRJ8mS3TI8rAXX8v/awopSyVTst/ygo72JrXAX4Y3XoUBfRQcnR4Otii2smFUgD7tMvNjWkCg+MccHYfFwq/TWUT0+quq8GhElM0HQIAur+DCz5uZOKjHj+p5eMCwoVvzWlUCZYy6a+GkKBiz5okJEw58W0NbUDnSm5d59xLviAewwqfWZFrjyzs4nYOUaeiTIClM8c/HVE09TK72zSef7rJ6uEZshBuaW5brn92FImiczKMjybdlnDzV/HPrACrNPFT2wLGqHgy8YFmCbmgoOEvwukS+ttb38FoPMOzTPAfbwSdwlmSIIfl1MOYX4dxuhK0s5+FRfsWAxAW/WPWv4WHsPxuJVdTcoqGtkbBoO1A0yFuxtj8tT2ZmPoms6qog61Tlcr7eHzzgQfnHOQbF1+tRO/fnUVawyskyXcv4jJlDSvrp0U61mt836dOl37Jw383DClqN10aH8C5joJZppPkIiqMyadPKrVqKJN0hVAJxN2tjIWPwMpf97abJSps38ZtY5Neb19yZngQ7CxBT45Yohf1la1yt4m0DZbinSWE2Q55ZDM0rn4wwa57c06Yy1eOgEV1wvG5JNfgaBcTbwVgfjtxxVTtllR4pb1/xamir/JJM6Le+yP+Ve7Yjbxfyuf6pc3q1tkL/MPCr5PH2qr1lp2f3zO3NP+aI1ZJ4J1ZLHPcLNe3RMSDkM27xiEm4wVPh7r3S7tgch/2tbM0q2gPMW7XRqC+/btKcWSY6JE+fMOH2JIbQdCL/e+Xy/v7w0zkRNs55v08meW+XE7IavZZD7uaI6hicIylXaXB5xDcue0xEpFCDdZLWfSe6q+rYjAGFOHeDNa4rradjPGYQuA/vDtWtnLIg+7dObIXJmNTSGocA3S3MhYn2kY0fzP7WyRZRsbhUPX5R+7Q8biEbtyx8KUwzSe0I4+NiDLiXQYKmXIGZGn/TI5w66EvrvmTPAB+wgA1oWWlayhTwEf2hzJitxM6SXAT6y1R91WheRuAkN2SZd/3TRliFTghv0HsYLhHUikztTdxgxiNYEmbcs25hXeqdGpnP2TBoUm0/b0sV1D0srDuijU6hHsX0LfXXEo+C45BAlpRmJqUeMp6NPi0dgDmdImllMZVIbS/JqR/A/j/1qYwC7NxPpezGqgs3Wctnug7drDSLwOP+YETpTw7cYGe4NSyxmWs38kcU+bBlJ7xSnJkeArAXXY1NUyxFxSsNd7mejXiqbYpbN9JpK869q+O96tlZBRUCrZtRxdg6daIFNSdf1fhGm1Le3l8rnGiDPb5ypLb6C2o81D2O+efRF9ctV54ENYHXvV+tZtVC3Ww6G458VazjSBo/gY8QAr6ZD+Z9hs8dhm/U2m/VNHQSLllzuZoNmmQ08apfjplf0La7vCIuL9EnxpJDX2nZLSuuSAZkEcXaOBVyWFXjeMYGki99QO0A0zdsmPBBcq51hxIQ8/qCM/eadetrHAsivpGRaN/Jb5eONHXNIyWqtIu2UMV+nXnPjdQlnnNE/nPxRksN/fqsfar81gwatQBTRTekL6ddHFz3DVOptqqEO9hSYWZrSre0vmwg5m+/ZrH/3R4JKmvUzzOiXZUMoBTQN4jewVMPAXGf6XRc74qON4pjRcx1vL48ZzcEWU1xJmBl9Sw60TaRFG3ut71c1UlkpLaJjR+Zk9Do01pDNMadtYUM1O4PR7aaX32Vdngk/3N9VHDKkfXwiY0MuaPmCuPFOawPy6bQJDddXueEelOZ07UnPoZs4H1MjTy+nYk1Xd+InaLpvUiGW4ScestHyH0S6ttVLHrLR7NsX0ySVngg9x3q9PuFKHFRHGtWJFi99kjlz349mlmUzaGCFUu5tI8UomWZazpStT0uHmRxh5O5qowJY6caKLflbn2LublY2txjo+K8JuNMVkYhN1SP32oLKUM9C37V4mwvTZdQW/higd5vYJFX5xpbTSJRthjF0MC3bpSEKoY1T61XBIT5Srxt9P363jAAb7/E+y9+4JNl/qdKxtQnDPGJGbcYXPW/vC0qR+odlm6htGAGlaiU/Wsxhlr273Me/ZVtB3FzPoyL5rgG1NSKgGa3Qn7AlMr+rCzRp1ARQQCLcbqVzF2H3puP2bX8az5+G73wPAxjbb9AqQwk2Ef299o4aFILkpMXq17R5i8UWT+ng8Z5fycEG/PMZ+AUkUoH8P8yTcwLb8lDkVqa/AFnmUNYghrcQh/t7+1LPrcV9fg24a3VtJPP1b7MDVbdfPoq5N4ysGkf+PyZVL2C6te+qtSb99g3n1X7LyZ6/JMNYH+Az55fdM/PyFqVZTP2g+/ax7/cx6+JqauHcOK3KMefnUO8a3ddgKum8whXEobnbbaqO/7bSfaLIpqk8uOUQB2fRVpUhX6nLrK+NYIWOipI8CuM6rb8gwZ6+q/5vE7VPE2loFSKtBXo0U6hp7fZmfI1pRKj8lctIeXeVzC1vBMwWGlmwMSp1uGDTz81HnDi6ESXWNwRozRGxtSz9+di74qF2Nyb+5LyTnsKhDN0C0MwCtrmXsfGBDY/slKw3VBb+eRRmXjmfdXCbLXgGye1kLsnzW0ztuYRpYVwvbJW3rr1DrKQEhjEcNH4/GPfjN5ibjnB+njPfaB+eCDzDNmPQP45sPQ3qumJi6+VENssdQ/WuZxbNLOvbffXwZR7QU8uvIIAcQ3U6o+6vYG3A9mz/sYjs6RP0IG8OI3ytDaaK6AuyD+awY1rjE/+Jh8IPPiXsO+e9c8JVAqPffMja/j8qchySP0g2SJv1ouUbh7mCLtBLfLumS7p9yeMOiE8rlsyzRAouuJxjn88z6/XA6ewPskKfE+4gcPoOh167utRaY7SIOhToO13MZS7g3aWwizT7pemMObA5ng68Ao97vW9+A2vfIv7KWPkWCIeZfsAvuXp85bKvbty5Ha/zilHJD/dq6gB3RFKPjfNYLHtK2Vy/90T9sDcrdSL16cO3gwzAjUfXfm1Ysurfw5x/UJ6bwu8N86RUewO/OBp+OGuq9MigvsgNWd76ciY9t3RunM6v3Iv1PbUPyMqQ8XCt1w3ZrWDijA58hM+Wv3tvSjqv1qWfwQG56pVr2acTJQknV7reyQET39N+1rk4qiVZa71vL6M/Plib3ZzM6qBtpaeBnWW7j0CONvt01o8w4K69dA9CD6nBUblhbzWGJ9gsrtfTXWHsXtG7p7qDKlFsYni/uDDHXAONY0p9htutfadstbLmujKmHNV2FttFnHsUD0HkFJybng29QzSUv4yb9kEUZR3E44l3Hl0q+BkrMoR71r9I1b3WVcUiCHaFXIb0pC0HtHrK7BoX0wMZXLauBllc2ynUcxPAxa/KNJpjgAvyprNC9k8MZdpHn1teqpQHGtFUbdnX18bXsAB/iakR88fsNspwzePSghNunl4oRXW9jAB1yNxK5m/vSXnmU7dHW1AwohlfQzd7G0DhPYdDVsxrn+2igm9bUyDY0gWG9W4DXzR4PnlRurAy68bUaIpTOM/KsdElOTTn9KDaIrOsn1zDNOpU4+cWsvc/F+l5FsAdsDenSN85cNOyDIIGbo9ngmcczejTbnYy9xkoqEywrFT71s8uwF1YyrPyW83c0KJQizXgbCvySk8tlbL5PFqzZJ3/ErzdmD7pV36c26IA8kD3ga3chZCOE1uXZMwi26ImY5Vjhq3c3J9boaTyeP5X0N2GSl1D1GlPfiJv1OKB12+iiTJ2M06PWWIKfBF65Da3wRTTRIiR+ZMDHnME+Wb6pSQzrg3xOTs6M7XdAMaW3SvI1q/bKfbPKjJ23I/K88t3X9yW2cHvQ7RC9AVBeYn39+rp9xnpAzdeTpKO7sZzQBJTydbPoAg6AvJnInw4B/4wB+AckXg9oStEMPam4F/Nml+QrISC+AqmHMal1X5HnZoIn3ziAaTcrd3Um0HgALQA+rPdj+TfPdtXDs6W5Aq/A8jcTzaOHLl1B5E/P5lnwcrXomr9mbZzJILaFOOdi9oGvtGtjAN21/Q/G/H3M0nxxVL58ATtAD2HQQ5F2m64ZnoDi0eOknMSfHrn6L0wa/RiPY2pJjjyG5f9t3My3WGCScmpIjyvs/QKyTu23k8RggDhLs+JE0BrlbXbQKCi6TVqPQn0cUJYTHHqb41DVWjfG+66EV5Vj2qTcj9E4FePxUvbYX0zItgI74wNCzje9uk+e3cGuXYI8+ni2SLxJw6SCytYj17UnUF7j9iUcxHzhoblyDUek6I8sNAKKTv0+jZv2KkZiJQab/sBCuypI9j55TctjyCjmLKCJWO6fGZojZzEfP50NmLqgVFcR6cFQv2MvgPry2Sbt2j0zJbufzeBrb1T06E0A6VYP4GzCwBfjDZw4LHH+vnoA+rMpumfuQ1YJ7WFY0EOeNDKr8aISVtcOYR5gjP4Gj24Ph3l0YiiXm+rZrd7TbKwvWMlPrlSRV5f4GSt2khQ0aZo178mmZzv4JskN/Zs4u09/VOkoFnaciA/+GWb1phAfKEU7aJhYFYC+zKReojKB/tyK3tcNHrqKVyOLa1hToBFE/dGGZh1CNCUpl/iehf+zd8zPROw2UBSkZlbV6ITQGly+n/sajLF6JFrhUKRbJV3X0useD8VTl3XrwsvtqHI9yFnXCeqwoYtIdcZOJ4aMNABAN0k38MA3e9YGki6k1Z9BaWBwruK1EVfQu9sl6ua0xYSMEUMZIEYeBTmCX5jykyxa1gAC3STRwAXf7KEFNB2jdYwPG3CbD9i8mytuLHltnsr6SwMf/HSIBjig6d3t6Hs357k6KnLwXrZQYBD8bEGqF9o5CH4vEDVbihwEP1uQ6oV2DoLfC0TNliL/HyOEvS6Nh8GPAAAAAElFTkSuQmCC;" parent="1" vertex="1">
          <mxGeometry x="1158" y="405" width="127" height="106" as="geometry" />
        </mxCell>
        <mxCell id="YUbw2JP94p_LkqaTvcqz-7" value="&lt;p style=&quot;margin:0px;margin-top:4px;text-align:center;text-decoration:underline;&quot;&gt;&lt;b&gt;Object:&lt;/b&gt;&lt;/p&gt;&lt;div style=&quot;text-align: center;&quot;&gt;&lt;b&gt;&lt;u&gt;Slack_User__c&lt;/u&gt;&lt;/b&gt;&lt;/div&gt;&lt;hr&gt;&lt;p style=&quot;margin:0px;margin-left:8px;&quot;&gt;field1 = Display_Name__c&lt;br&gt;field2 = Full_Name__c&lt;br&gt;field3 = Slack_User_Email__c&lt;/p&gt;&lt;p style=&quot;margin:0px;margin-left:8px;&quot;&gt;field4 =&amp;nbsp;Slack_User_ID__c&lt;/p&gt;" style="verticalAlign=top;align=left;overflow=fill;fontSize=12;fontFamily=Helvetica;html=1;whiteSpace=wrap;fillColor=#ffe6cc;strokeColor=#d79b00;" parent="1" vertex="1">
          <mxGeometry x="1439" y="616" width="196" height="110" as="geometry" />
        </mxCell>
        <mxCell id="YUbw2JP94p_LkqaTvcqz-8" value="display_name&lt;br&gt;first_name&lt;br&gt;last_name&lt;br&gt;email&lt;br&gt;slackUserId" style="html=1;outlineConnect=0;whiteSpace=wrap;fillColor=#ffe6cc;shape=mxgraph.archimate3.application;appType=passive;archiType=square;strokeColor=#d79b00;" parent="1" vertex="1">
          <mxGeometry x="857" y="550" width="152" height="91" as="geometry" />
        </mxCell>
        <mxCell id="YUbw2JP94p_LkqaTvcqz-9" value="" style="endArrow=none;html=1;rounded=0;dashed=1;dashPattern=1 4;" parent="1" edge="1">
          <mxGeometry width="50" height="50" relative="1" as="geometry">
            <mxPoint x="804.2352941176471" y="522" as="sourcePoint" />
            <mxPoint x="804" y="426" as="targetPoint" />
          </mxGeometry>
        </mxCell>
        <mxCell id="YUbw2JP94p_LkqaTvcqz-10" value="" style="endArrow=none;html=1;rounded=0;dashed=1;dashPattern=1 4;" parent="1" edge="1">
          <mxGeometry width="50" height="50" relative="1" as="geometry">
            <mxPoint x="1730.235294117647" y="522" as="sourcePoint" />
            <mxPoint x="1730" y="426" as="targetPoint" />
          </mxGeometry>
        </mxCell>
        <mxCell id="YUbw2JP94p_LkqaTvcqz-11" value="" style="endArrow=none;html=1;rounded=0;dashed=1;dashPattern=1 4;" parent="1" edge="1">
          <mxGeometry width="50" height="50" relative="1" as="geometry">
            <mxPoint x="1186.235294117647" y="795" as="sourcePoint" />
            <mxPoint x="1285" y="795" as="targetPoint" />
          </mxGeometry>
        </mxCell>
        <mxCell id="YUbw2JP94p_LkqaTvcqz-12" value="" style="endArrow=none;html=1;rounded=0;dashed=1;dashPattern=1 4;" parent="1" edge="1">
          <mxGeometry width="50" height="50" relative="1" as="geometry">
            <mxPoint x="1177.115294117647" y="320" as="sourcePoint" />
            <mxPoint x="1275.88" y="320" as="targetPoint" />
          </mxGeometry>
        </mxCell>
      </root>
    </mxGraphModel>
  </diagram>
</mxfile>
